# xmcd
#
# Track frame offsets:
#	150
#	23570
#	44202
#	56045
#	71608
#	99026
#	109289
#	123988
#	149235
#	162427
#
# Disc length: 2292 seconds
#
# Revision: 1
# Processed by: cddbd v1.5.2PL0 Copyright (c) Steve Scherf et al.
# Submitted via: audiograbber 1.83.01
#
DISCID=9308f20a
DTITLE=Divers - House Of Gospel
DYEAR=1900
DGENRE=Gospel
TTITLE0=Faded Rose
TTITLE1=I've Got Power
TTITLE2=Get Right Church
TTITLE3=Over In Zion
TTITLE4=Why ?
TTITLE5=Evereytime I Feel The Spirit
TTITLE6=He Can Do Anything But Fail
TTITLE7=Perfect Peace
TTITLE8=Jonah
TTITLE9=Lord Don't Ever Leave Me
EXTD=
EXTT0=
EXTT1=
EXTT2=
EXTT3=
EXTT4=
EXTT5=
EXTT6=
EXTT7=
EXTT8=
EXTT9=
PLAYORDER=
